<?xml version="1.0" standalone="no"?>
<!DOCTYPE svg PUBLIC "-//W3C//DTD SVG 20010904//EN"
 "http://www.w3.org/TR/2001/REC-SVG-20010904/DTD/svg10.dtd">
<svg version="1.0" xmlns="http://www.w3.org/2000/svg"
 width="260.000000pt" height="260.000000pt" viewBox="0 0 260.000000 260.000000"
 preserveAspectRatio="xMidYMid meet">
<metadata>
Created by potrace 1.11, written by Peter Selinger 2001-2013
</metadata>
<g transform="translate(0.000000,260.000000) scale(0.100000,-0.100000)"
fill="#000000" stroke="none">
<path d="M672 2310 c-112 -26 -178 -65 -268 -154 -68 -69 -85 -93 -114 -161
-26 -65 -34 -98 -38 -171 -4 -88 7 -191 30 -264 17 -56 96 -218 128 -265 25
-37 162 -210 219 -278 11 -12 94 -114 186 -227 92 -113 174 -214 183 -225 10
-11 75 -91 145 -177 71 -87 132 -158 135 -158 4 0 46 46 92 103 47 56 92 111
102 122 118 142 305 366 322 385 11 14 52 63 91 110 38 47 72 87 75 90 3 3 38
44 78 92 197 234 283 441 277 664 -5 157 -49 258 -163 373 -102 101 -218 153
-342 152 -52 -1 -67 -2 -133 -17 -52 -11 -143 -65 -197 -115 -39 -37 -94 -118
-125 -183 -33 -71 -64 -164 -65 -190 0 -30 -11 -12 -21 35 -15 67 -68 178
-122 258 -113 167 -294 243 -475 201z"/>
</g>
</svg>
